<?xml version="1.0" ?>
<svg viewBox="0 0 32 32" xmlns="http://www.w3.org/2000/svg">
<defs><style>.cls-1{fill:#005792;}.cls-2{fill:none;}</style></defs><title/>
    <g id="Search">
        <path class="cls-1" d="M17.69,16.81l1.51,1.52a8.79,8.79,0,0,1-1.93-.24l-.43-.43a2.25,2.25,0,0,1-.3.24l-.17,0A8.86,8.86,0,0,0,17,15.73a8.12,8.12,0,0,0,.14-1.57,8.94,8.94,0,0,0-7-8.75h0c-.35-.07-.71-.13-1.08-.17a6.28,6.28,0,0,1,.23-.82A7.51,7.51,0,0,1,11.78,4a7.8,7.8,0,0,1,7.79,7.77A7.69,7.69,0,0,1,17.69,16.81Z"/>
        <path class="cls-2" d="M21.74,20.26a.64.64,0,0,0-.43-.18.6.6,0,0,0-.42.18l-.65.65a.6.6,0,0,0,0,.84l4.89,4.89a.61.61,0,0,0,.85,0l.65-.65a.59.59,0,0,0,0-.85Z"/>
        <ellipse class="cls-2" cx="11.78" cy="11.77" rx="6.59" ry="6.57"/>
        <path d="M27.47,24.29l-4.88-4.87a1.83,1.83,0,0,0-2.4-.1l-1-1-1.51-1.52a7.69,7.69,0,0,0,1.88-5A7.8,7.8,0,0,0,11.78,4a7.51,7.51,0,0,0-2.51.42,7.77,7.77,0,0,0,2.51,15.12,7.66,7.66,0,0,0,4.76-1.64,2.25,2.25,0,0,0,.3-.24l.43.43,2.07,2.06a1.78,1.78,0,0,0,.05,2.45l4.9,4.89a1.8,1.8,0,0,0,1.27.51,1.84,1.84,0,0,0,1.27-.51l.64-.66a1.79,1.79,0,0,0,0-2.54ZM17,15.73a4.26,4.26,0,0,1-.48.57,6.89,6.89,0,0,1-1.09.92,4.62,4.62,0,0,1-.81.45,3.38,3.38,0,0,1-.58.25,4.75,4.75,0,0,1-.73.23,1.39,1.39,0,0,1-.33.07,4.09,4.09,0,0,1-.58.09c-.2,0-.43,0-.65,0A6.59,6.59,0,0,1,5.2,11.77a5.46,5.46,0,0,1,.12-1.21,1.28,1.28,0,0,1,.07-.34,4.78,4.78,0,0,1,.23-.76,2.39,2.39,0,0,1,.15-.37A6.49,6.49,0,0,1,7,7.24,1.67,1.67,0,0,1,7.25,7a6.47,6.47,0,0,1,.91-.73A3.9,3.9,0,0,1,8.65,6a2.73,2.73,0,0,1,.45-.23,2,2,0,0,1,.31-.13,2.3,2.3,0,0,1,.34-.12l.37-.11h0l.4-.1a5.4,5.4,0,0,1,.58-.08c.22,0,.45,0,.67,0a6.59,6.59,0,0,1,6.59,6.57,5.47,5.47,0,0,1-.11,1.15,1.8,1.8,0,0,1-.08.39.61.61,0,0,1-.05.18,1.94,1.94,0,0,1-.12.39s0,0,0,0-.11.32-.18.48a5.56,5.56,0,0,1-.49.9A4.84,4.84,0,0,1,17,15.73ZM26.63,26l-.65.65a.62.62,0,0,1-.84,0l-4.9-4.89a.6.6,0,0,1,0-.84l.65-.66a.64.64,0,0,1,.85,0l4.89,4.89a.61.61,0,0,1,.17.42A.61.61,0,0,1,26.63,26Z"/>
    </g>
</svg>